<svg width="31" height="27" viewBox="0 0 31 27" fill="none" xmlns="http://www.w3.org/2000/svg">
<path d="M25.3222 14.9042C24.2288 22.6806 13.3279 23.6654 7.99898 19.7645H7.99741C4.46626 16.6895 4.4443 11.0113 7.58014 7.54399C9.96299 5.24729 13.5443 4.89945 16.699 5.08687L18.5642 0.236163C12.6533 -0.629468 5.8075 0.79525 2.20263 5.99698C-0.986544 10.5126 -0.759081 18.0062 3.18934 22.1819C11.0187 30.7238 29.8165 27.6711 30.6761 14.9027H25.3222V14.9042Z" fill="#081B4E"/>
<path d="M30.736 13.2032H25.4134C25.3475 9.23873 22.3889 5.78891 18.417 5.30288L20.2398 0.561768C26.0628 1.80859 30.8929 7.00714 30.736 13.2032Z" fill="#F21A05"/>
</svg>
