<svg width="102" height="26" viewBox="0 0 102 26" fill="none" xmlns="http://www.w3.org/2000/svg">
<path d="M98.2017 10.397C100.245 10.397 101.794 11.9661 101.794 14.1054C101.794 16.1022 100.245 17.8139 98.2017 17.8139C96.1588 17.8139 94.5391 16.1022 94.5391 14.1054C94.5382 11.9661 96.1588 10.397 98.2017 10.397Z" fill="#F21A05"/>
<path d="M48.5695 4.89C47.2772 3.73898 45.4838 3.1626 43.1895 3.1626C41.5258 3.17134 39.6322 3.64452 37.5132 4.58213L37.3059 3.45648L34.8906 3.59729V17.8757H37.7629V7.05385C38.5041 6.72586 39.3705 6.4521 40.3648 6.23257C41.3599 6.01129 42.1995 5.90196 42.8854 5.90196C44.7988 5.90196 46.0695 6.2107 46.6941 6.82907C47.3178 7.44831 47.6305 8.43665 47.6305 9.79321L47.659 17.874H50.5045V9.79321C50.5053 7.67747 49.8592 6.0419 48.5695 4.89Z" fill="#081B4E"/>
<path d="M62.1194 15.3945L62.0814 15.0227L61.8041 15.063L61.7056 15.0778C61.456 15.1155 61.0871 15.1557 60.5956 15.1985C60.1058 15.2405 59.6143 15.2606 59.1236 15.2606C57.8287 15.2606 56.9174 15.091 56.3896 14.7551C55.8618 14.4166 55.5983 13.7388 55.5983 12.7181V6.07085H60.6008L60.6068 3.40058H55.5974V0L53.8352 0.209912L52.8928 3.40058H50.7418L50.5068 6.07085H52.7545V12.7181C52.7545 16.2306 54.8182 17.9878 58.9448 17.9878C60.1948 17.9878 61.3333 17.8942 62.3587 17.707L62.1194 15.3945Z" fill="#081B4E"/>
<path d="M14.0103 5.28725C12.5996 3.93332 10.6819 3.25635 8.25712 3.25635C6.66507 3.26597 4.8562 3.73915 2.8305 4.67588L2.62232 3.55197L0.207031 3.69192V25.4738L2.21804 25.4808L3.07583 24.594V20.3598H3.08015V16.8727C3.80059 17.219 4.52794 17.4919 5.26133 17.6896C6.23142 17.9511 7.21101 18.0805 8.20183 18.0805C8.54132 18.0805 8.87044 18.0674 9.1892 18.0403C11.1553 17.8768 12.7534 17.2085 13.9826 16.0365C15.4123 14.673 16.1275 12.8808 16.1275 10.6549C16.1275 8.42982 15.4209 6.64119 14.0103 5.28725ZM12.1021 14.0563C11.3332 14.9231 9.94592 15.3569 7.9375 15.3569C6.51303 15.3569 4.89334 14.9905 3.08015 14.2601V7.17821C4.68948 6.39017 6.30917 5.99746 7.9375 5.99746C8.64412 5.99746 9.27472 6.04906 9.82671 6.15489C10.8521 6.34818 11.6131 6.72165 12.109 7.27617C12.8717 8.12807 13.2535 9.25547 13.2535 10.6558C13.2535 12.0561 12.8691 13.1896 12.1021 14.0563Z" fill="#081B4E"/>
<path d="M70.1445 18.1058C71.0395 18.077 71.8523 17.9554 72.5857 17.7402C71.7331 17.9571 70.9194 18.077 70.1445 18.1058Z" fill="#081B4E"/>
<path d="M77.0342 3.4126V11.4942C77.0342 13.6012 76.3898 15.2324 75.0984 16.3852C74.4125 16.9966 73.5858 17.4461 72.6166 17.7321C72.6062 17.7356 72.595 17.7391 72.5846 17.7409C71.7337 17.9569 70.9191 18.0776 70.1443 18.1056C70.0061 18.1108 69.8635 18.1126 69.7201 18.1126C69.6018 18.1126 69.4817 18.1108 69.3616 18.1056C68.5859 18.0767 67.773 17.9569 66.9213 17.7409C66.9109 17.7409 66.9014 17.7374 66.8893 17.7321C65.9193 17.4461 65.0934 16.9966 64.4075 16.3852C63.1152 15.2324 62.4717 13.6021 62.4717 11.4942V3.4126H65.3439V11.4942C65.3439 12.8525 65.6558 13.84 66.2803 14.4584C66.866 15.0383 68.0175 15.3452 69.7391 15.3829H69.7676C71.4867 15.3452 72.6382 15.0383 73.2264 14.4584C73.851 13.8418 74.1628 12.8525 74.1628 11.4942V3.4126H77.0342Z" fill="#081B4E"/>
<path d="M30.9246 11.0877C30.3225 15.3699 24.3197 15.9122 21.3853 13.7641H21.3844C19.4399 12.0708 19.4278 8.94395 21.1546 7.03462C22.4668 5.76989 24.4389 5.57835 26.1761 5.68156L27.2032 3.01042C23.9483 2.53374 20.1785 3.31829 18.1934 6.18272C16.4372 8.66931 16.5625 12.7958 18.7367 15.0953C23.0481 19.799 33.3995 18.118 33.8729 11.0868H30.9246V11.0877Z" fill="#081B4E"/>
<path d="M33.9058 10.1512H30.9748C30.9385 7.96808 29.3093 6.06837 27.1221 5.80073L28.1258 3.18994C31.3324 3.87653 33.9922 6.73921 33.9058 10.1512Z" fill="#F21A05"/>
<path d="M78.9574 4.64696C80.4985 3.68836 83.014 3.00439 85.5018 3.00439C89.0444 3.00439 92.4255 4.4283 92.3978 8.42626L92.3711 13.6837V13.8481C92.3711 15.0805 92.5879 15.628 93.8586 15.628H94.0478V18.1198C90.9647 18.1198 89.3148 17.4079 89.3148 14.7516C88.0165 16.8875 85.3118 18.1741 82.3376 18.2563C79.0922 18.3656 77.5234 16.3942 77.5234 14.2854C77.5234 11.8207 79.6874 9.13734 83.7975 9.24667L87.1241 9.30177C87.8817 9.32889 89.2336 9.35687 89.3148 8.42539C89.288 6.42684 87.4213 5.742 85.3118 5.742C83.2835 5.742 81.0116 6.37174 79.8489 7.0837L78.9574 4.64696ZM87.0438 11.7394L83.8795 11.6843C81.8513 11.6572 80.7421 12.8895 80.7421 13.9846C80.7421 14.9152 81.5532 15.7645 83.3388 15.6822C85.5839 15.5449 89.2077 13.9846 89.3157 11.3283V11.1639C88.7473 11.6021 87.9897 11.7394 87.0438 11.7394Z" fill="#081B4E"/>
</svg>
